<svg width="329" height="185" viewBox="0 0 329 185" fill="none" xmlns="http://www.w3.org/2000/svg">
<path d="M0 4C0 1.79087 1.79086 0 4 0H325C327.209 0 329 1.79086 329 4V181C329 183.209 327.209 185 325 185H3.99999C1.79085 185 0 183.209 0 181V4Z" fill="#D9D9D9"/>
<path d="M78.0682 108V86.1818H81.4205V108H78.0682ZM79.7727 82.5455C79.1193 82.5455 78.5559 82.3229 78.0824 81.8778C77.6184 81.4328 77.3864 80.8977 77.3864 80.2727C77.3864 79.6477 77.6184 79.1127 78.0824 78.6676C78.5559 78.2225 79.1193 78 79.7727 78C80.4261 78 80.9848 78.2225 81.4489 78.6676C81.9223 79.1127 82.1591 79.6477 82.1591 80.2727C82.1591 80.8977 81.9223 81.4328 81.4489 81.8778C80.9848 82.3229 80.4261 82.5455 79.7727 82.5455ZM87.5604 108V86.1818H90.799V89.5909H91.0831C91.5376 88.4261 92.2715 87.5218 93.2848 86.8778C94.2981 86.2244 95.5149 85.8977 96.9354 85.8977C98.3748 85.8977 99.5727 86.2244 100.529 86.8778C101.495 87.5218 102.248 88.4261 102.788 89.5909H103.015C103.574 88.464 104.412 87.5691 105.529 86.9062C106.647 86.2339 107.987 85.8977 109.549 85.8977C111.5 85.8977 113.095 86.5085 114.336 87.7301C115.576 88.9422 116.197 90.8314 116.197 93.3977V108H112.844V93.3977C112.844 91.7879 112.404 90.6373 111.523 89.946C110.643 89.2547 109.606 88.9091 108.413 88.9091C106.879 88.9091 105.69 89.3731 104.847 90.3011C104.004 91.2197 103.583 92.3845 103.583 93.7955V108H100.174V93.0568C100.174 91.8163 99.7715 90.8172 98.9666 90.0597C98.1617 89.2926 97.1248 88.9091 95.8558 88.9091C94.9846 88.9091 94.1702 89.1411 93.4126 89.6051C92.6645 90.0691 92.0585 90.7131 91.5945 91.5369C91.1399 92.3513 90.9126 93.2936 90.9126 94.3636V108H87.5604ZM128.746 108.511C127.364 108.511 126.109 108.251 124.982 107.73C123.855 107.2 122.96 106.438 122.298 105.443C121.635 104.439 121.303 103.227 121.303 101.807C121.303 100.557 121.549 99.5436 122.042 98.767C122.534 97.9811 123.192 97.3655 124.016 96.9205C124.84 96.4754 125.749 96.1439 126.744 95.9261C127.747 95.6989 128.756 95.5189 129.769 95.3864C131.095 95.2159 132.17 95.0881 132.994 95.0028C133.827 94.9081 134.433 94.7519 134.812 94.5341C135.2 94.3163 135.394 93.9375 135.394 93.3977V93.2841C135.394 91.8826 135.011 90.7936 134.244 90.017C133.486 89.2405 132.335 88.8523 130.792 88.8523C129.192 88.8523 127.937 89.2027 127.028 89.9034C126.119 90.6042 125.479 91.3523 125.11 92.1477L121.928 91.0114C122.496 89.6856 123.254 88.6534 124.201 87.9148C125.157 87.1667 126.199 86.6458 127.326 86.3523C128.462 86.0492 129.58 85.8977 130.678 85.8977C131.379 85.8977 132.184 85.983 133.093 86.1534C134.012 86.3144 134.897 86.6506 135.749 87.1619C136.611 87.6733 137.326 88.4451 137.894 89.4773C138.462 90.5095 138.746 91.892 138.746 93.625V108H135.394V105.045H135.224C134.996 105.519 134.618 106.026 134.087 106.565C133.557 107.105 132.852 107.564 131.971 107.943C131.09 108.322 130.015 108.511 128.746 108.511ZM129.258 105.5C130.584 105.5 131.701 105.24 132.61 104.719C133.529 104.198 134.22 103.526 134.684 102.702C135.157 101.878 135.394 101.011 135.394 100.102V97.0341C135.252 97.2045 134.94 97.3608 134.457 97.5028C133.983 97.6354 133.434 97.7538 132.809 97.858C132.193 97.9527 131.592 98.0379 131.005 98.1136C130.427 98.1799 129.959 98.2367 129.599 98.2841C128.728 98.3977 127.913 98.5824 127.156 98.8381C126.407 99.0843 125.801 99.4583 125.337 99.9602C124.883 100.453 124.656 101.125 124.656 101.977C124.656 103.142 125.086 104.023 125.948 104.619C126.819 105.206 127.923 105.5 129.258 105.5ZM153.672 116.636C152.053 116.636 150.661 116.428 149.496 116.011C148.331 115.604 147.36 115.064 146.584 114.392C145.817 113.729 145.206 113.019 144.751 112.261L147.422 110.386C147.725 110.784 148.108 111.239 148.572 111.75C149.036 112.271 149.671 112.721 150.476 113.099C151.29 113.488 152.356 113.682 153.672 113.682C155.433 113.682 156.887 113.256 158.033 112.403C159.179 111.551 159.751 110.216 159.751 108.398V103.966H159.467C159.221 104.364 158.871 104.856 158.416 105.443C157.971 106.021 157.327 106.537 156.484 106.991C155.651 107.437 154.524 107.659 153.104 107.659C151.342 107.659 149.761 107.242 148.359 106.409C146.967 105.576 145.864 104.364 145.05 102.773C144.245 101.182 143.842 99.25 143.842 96.9773C143.842 94.7424 144.235 92.7964 145.021 91.1392C145.807 89.4725 146.901 88.1847 148.303 87.2756C149.704 86.357 151.323 85.8977 153.161 85.8977C154.581 85.8977 155.708 86.1345 156.541 86.608C157.384 87.072 158.028 87.6023 158.473 88.1989C158.928 88.786 159.278 89.2689 159.524 89.6477H159.865V86.1818H163.104V108.625C163.104 110.5 162.678 112.025 161.825 113.199C160.982 114.383 159.846 115.249 158.416 115.798C156.996 116.357 155.414 116.636 153.672 116.636ZM153.558 104.648C154.903 104.648 156.039 104.34 156.967 103.724C157.895 103.109 158.601 102.223 159.084 101.068C159.567 99.9129 159.808 98.5303 159.808 96.9205C159.808 95.3485 159.571 93.9612 159.098 92.7585C158.625 91.5559 157.924 90.6136 156.996 89.9318C156.068 89.25 154.922 88.9091 153.558 88.9091C152.138 88.9091 150.954 89.2689 150.007 89.9886C149.07 90.7083 148.364 91.6742 147.891 92.8864C147.427 94.0985 147.195 95.4432 147.195 96.9205C147.195 98.4356 147.431 99.7756 147.905 100.94C148.388 102.096 149.098 103.005 150.036 103.668C150.982 104.321 152.157 104.648 153.558 104.648ZM178.388 108.455C176.286 108.455 174.472 107.991 172.947 107.062C171.432 106.125 170.263 104.818 169.439 103.142C168.625 101.456 168.217 99.4962 168.217 97.2614C168.217 95.0265 168.625 93.0568 169.439 91.3523C170.263 89.6383 171.409 88.303 172.876 87.3466C174.354 86.3807 176.077 85.8977 178.047 85.8977C179.183 85.8977 180.305 86.0871 181.413 86.4659C182.521 86.8447 183.53 87.4602 184.439 88.3125C185.348 89.1553 186.072 90.2727 186.612 91.6648C187.152 93.0568 187.422 94.7708 187.422 96.8068V98.2273H170.604V95.3295H184.013C184.013 94.0985 183.767 93 183.274 92.0341C182.791 91.0682 182.1 90.3059 181.2 89.7472C180.31 89.1884 179.259 88.9091 178.047 88.9091C176.712 88.9091 175.556 89.2405 174.581 89.9034C173.615 90.5568 172.872 91.4091 172.351 92.4602C171.83 93.5114 171.57 94.6383 171.57 95.8409V97.7727C171.57 99.4205 171.854 100.817 172.422 101.963C173 103.099 173.8 103.966 174.822 104.562C175.845 105.15 177.034 105.443 178.388 105.443C179.268 105.443 180.064 105.32 180.774 105.074C181.494 104.818 182.114 104.439 182.635 103.938C183.156 103.426 183.558 102.792 183.842 102.034L187.081 102.943C186.74 104.042 186.167 105.008 185.362 105.841C184.557 106.665 183.563 107.309 182.379 107.773C181.196 108.227 179.865 108.455 178.388 108.455ZM192.521 108V86.1818H195.76V89.5909H196.044C196.499 88.4261 197.232 87.5218 198.246 86.8778C199.259 86.2244 200.476 85.8977 201.896 85.8977C203.336 85.8977 204.534 86.2244 205.49 86.8778C206.456 87.5218 207.209 88.4261 207.749 89.5909H207.976C208.535 88.464 209.373 87.5691 210.49 86.9062C211.607 86.2339 212.947 85.8977 214.51 85.8977C216.461 85.8977 218.056 86.5085 219.297 87.7301C220.537 88.9422 221.158 90.8314 221.158 93.3977V108H217.805V93.3977C217.805 91.7879 217.365 90.6373 216.484 89.946C215.604 89.2547 214.567 88.9091 213.374 88.9091C211.839 88.9091 210.651 89.3731 209.808 90.3011C208.965 91.2197 208.544 92.3845 208.544 93.7955V108H205.135V93.0568C205.135 91.8163 204.732 90.8172 203.928 90.0597C203.123 89.2926 202.086 88.9091 200.817 88.9091C199.946 88.9091 199.131 89.1411 198.374 89.6051C197.625 90.0691 197.019 90.7131 196.555 91.5369C196.101 92.3513 195.874 93.2936 195.874 94.3636V108H192.521ZM247.571 108.398C245.904 108.398 244.403 108.066 243.068 107.403C241.733 106.741 240.663 105.831 239.858 104.676C239.053 103.521 238.613 102.205 238.537 100.727H241.946C242.079 102.044 242.675 103.133 243.736 103.994C244.806 104.847 246.084 105.273 247.571 105.273C248.764 105.273 249.825 104.993 250.753 104.435C251.69 103.876 252.424 103.109 252.955 102.134C253.494 101.149 253.764 100.036 253.764 98.7955C253.764 97.5265 253.485 96.3949 252.926 95.4006C252.377 94.3968 251.619 93.6061 250.653 93.0284C249.688 92.4508 248.584 92.1572 247.344 92.1477C246.454 92.1383 245.54 92.2756 244.602 92.5597C243.665 92.8343 242.893 93.1894 242.287 93.625L238.991 93.2273L240.753 78.9091H255.866V82.0341H243.707L242.685 90.6136H242.855C243.452 90.1402 244.2 89.7472 245.099 89.4347C245.999 89.1222 246.937 88.9659 247.912 88.9659C249.692 88.9659 251.278 89.392 252.67 90.2443C254.072 91.0871 255.17 92.2424 255.966 93.7102C256.771 95.178 257.173 96.8542 257.173 98.7386C257.173 100.595 256.757 102.252 255.923 103.71C255.099 105.159 253.963 106.305 252.514 107.148C251.065 107.981 249.418 108.398 247.571 108.398Z" fill="black"/>
</svg>
