<svg width="64" height="43" viewBox="0 0 64 43" fill="none" xmlns="http://www.w3.org/2000/svg">
<g id="Camada_x0020_1">
<g id="_2532995475344">
<path id="Vector" d="M20.822 32.2646C20.303 30.1512 20.2893 27.9155 20.782 25.7959C20.8723 25.4075 20.9963 24.9963 21.3086 24.7481C21.8288 24.3346 22.6342 24.581 23.1018 25.0533C23.5695 25.5254 23.819 26.1657 24.1838 26.7212C25.1071 28.1276 26.7147 28.92 28.3015 29.4784C29.8883 30.0369 31.5581 30.4398 32.9747 31.3472C33.5894 31.741 34.1885 32.3032 34.2503 33.0306C34.3159 33.8011 33.7585 34.4813 33.1667 34.9787C31.1419 36.6812 28.3225 37.2328 25.7736 36.6207C23.105 35.9798 21.5397 35.1875 20.822 32.2646Z" fill="#E8B134"/>
<path id="Vector_2" d="M42.3473 27.9072C41.9617 29.0143 41.5557 30.0257 41.2018 31.3588C40.8533 32.6715 40.0829 34.4409 41.2351 35.1605C46.2727 38.3061 52.5557 37.4221 55.8496 36.9871C57.8105 36.7282 59.9831 35.9129 61.9466 36.1513C62.5173 36.2208 63.1606 36.399 63.4064 36.9184C63.751 37.6458 63.0802 38.4399 62.4174 38.8963C60.0187 40.5479 57.0246 41.0521 54.1236 41.3068C50.4444 41.6297 46.74 41.6195 43.0543 41.3796C41.7776 41.2966 40.4831 41.1819 39.2857 40.7311C38.0882 40.2803 36.9813 39.4478 36.4691 38.2752C35.8007 36.7445 36.2589 34.9347 37.0936 33.4879C37.506 32.7731 38.0065 32.1092 38.5803 31.5162L42.3473 27.9072Z" fill="#E8B134"/>
<path id="Vector_3" d="M40.5125 32.4832C42.8612 27.6177 43.7687 22.92 43.6326 20.5089C43.3021 14.6539 40.1915 11.1913 37.8022 10.1242C36.1714 9.39585 33.3777 10.8746 31.9514 14.2892C30.578 17.5774 32.281 20.756 28.4108 28.3745C27.6589 29.8547 26.8383 31.2249 25.9893 32.4832H40.5125Z" fill="#FFC938"/>
<path id="Vector_4" d="M33.4248 0.267834C33.0303 0.106312 32.5664 0.217518 32.2095 0.450517C31.8525 0.683331 31.5813 1.02347 31.3165 1.35746C31.0235 1.72711 30.7282 2.10046 30.5204 2.52395C30.3125 2.94743 30.1964 3.43087 30.2837 3.89446C30.3516 4.25556 30.5375 4.58324 30.7427 4.8879C30.9859 5.24938 31.2604 5.58951 31.5621 5.90383C31.6483 5.99369 31.7346 6.06386 31.8235 6.12457C32.1807 6.64664 32.6232 7.36067 33.094 8.2806C34.4127 10.8568 34.0371 13.5247 34.0371 13.5247L38.082 10.8737C38.082 10.8737 37.2544 8.38364 35.4832 6.08836C35.4084 5.99126 35.3347 5.89714 35.2615 5.80431C35.1251 4.98204 34.9875 4.15011 35.2242 3.36125C35.2779 3.18154 35.3516 3.00034 35.3343 2.81357C35.3185 2.6448 35.23 2.49275 35.1412 2.3485C34.8353 1.85075 34.5024 1.36971 34.1443 0.908169C33.945 0.651406 33.7254 0.39111 33.4248 0.267834Z" fill="#FFC938"/>
<path id="Vector_5" d="M35.224 3.36109C35.2781 3.18156 35.3516 3.00036 35.3343 2.81359C35.3185 2.64482 35.23 2.49278 35.1412 2.34834C34.8353 1.85059 34.5024 1.36955 34.1442 0.908191C33.945 0.651427 33.7254 0.391132 33.4246 0.267855C33.0305 0.106148 32.5663 0.217539 32.2093 0.450539C31.9578 0.614845 31.7489 0.832626 31.5547 1.06377C32.2082 1.02255 32.6909 1.65378 33.0973 2.19646C33.1775 2.30358 33.3255 2.38844 33.3368 2.52174C33.3467 2.63685 33.2808 2.74193 33.2544 2.85443C33.086 3.57608 33.1114 3.76805 33.0414 4.49063C33.4696 5.48594 33.8906 6.1272 34.3995 7.14386C34.8547 8.05395 35.1783 9.08193 35.8512 9.8654C36.3259 10.4179 37.1905 10.6702 37.8488 11.0263L38.082 10.8737C38.082 10.8737 37.2544 8.38366 35.4832 6.08838C35.4084 5.99129 35.3347 5.89716 35.2617 5.80433C35.1251 4.98206 34.9875 4.14995 35.224 3.36109Z" fill="#E8B134"/>
<g id="Group">
<path id="Vector_6" d="M32.8999 14.4021C32.5145 15.3059 32.4603 16.3093 32.4565 17.2954V17.5627C32.4599 18.7084 32.4965 19.8539 32.5661 20.9974C32.5854 21.3143 32.6402 21.685 32.9198 21.8354C33.1049 21.9349 33.338 21.8995 33.5248 21.8029C34.082 21.5142 34.2593 20.8065 34.2971 20.1801C34.3957 18.5461 33.9617 16.8513 34.4795 15.2983C34.5871 14.9754 34.7351 14.6631 34.7921 14.3275C35.0901 12.5724 33.3263 13.4014 32.8999 14.4021Z" fill="#FFF031"/>
</g>
<g id="Group_2">
<path id="Vector_7" d="M32.2615 24.1517C32.0324 24.802 31.8034 25.4524 31.5743 26.1029C31.5069 26.2945 31.4388 26.5019 31.4973 26.6965C31.5899 27.0058 31.988 27.1437 32.2941 27.0407C32.6003 26.9377 32.8166 26.6603 32.9543 26.3681C33.0923 26.0758 33.1697 25.7584 33.3054 25.4654C33.4586 25.1351 33.684 24.8405 33.8169 24.5018C33.8765 24.3494 33.914 24.181 33.916 24.0165V23.9892C33.9138 23.7973 33.8622 23.6116 33.7402 23.4644C33.1055 22.6993 32.4607 23.5856 32.2615 24.1517Z" fill="#FFF031"/>
</g>
<path id="Vector_8" d="M32.606 6.51074C32.5933 6.67969 32.7042 6.8297 32.8055 6.9656C33.4351 7.80941 33.9056 8.77149 34.1846 9.78648C34.2273 9.94243 34.2678 10.104 34.3638 10.2341C34.4597 10.3643 34.628 10.4563 34.7834 10.4119C34.9414 10.3665 35.0353 10.1938 35.0414 10.0297C35.0475 9.86538 34.985 9.7072 34.9219 9.55533C34.5104 8.56374 34.0376 7.59758 33.507 6.66447C33.3816 6.44409 32.6461 5.97735 32.606 6.51074Z" fill="#FFD93B"/>
<path id="Vector_9" d="M31.5564 0.817197C31.325 1.08566 31.1329 1.38513 30.9159 1.66529C30.6431 2.01693 30.3307 2.33885 30.0906 2.71351C29.9855 2.87726 29.8942 3.0527 29.8509 3.24225C29.7886 3.51554 29.8303 3.80443 29.923 4.06899C30.0158 4.33373 30.1574 4.57788 30.3002 4.81923C30.4257 5.03181 30.5561 5.24734 30.7438 5.40757C30.9992 5.62553 31.3401 5.72244 31.5987 5.93669C31.5161 5.66377 31.3308 5.31288 31.4281 5.04479C31.7043 4.28304 31.8404 4.03742 32.5621 3.01C32.7093 2.80021 32.9573 2.45506 33.1066 2.24676C33.2137 2.0973 33.3624 1.97254 33.4252 1.79951C33.4876 1.62741 33.4529 1.43284 33.3784 1.26557C33.304 1.0981 33.1926 0.950505 33.094 0.796039C32.9997 0.64807 32.9152 0.491007 32.7906 0.367359C32.6222 0.199897 32.4397 0.139001 32.2353 0.255222C31.9743 0.403376 31.7524 0.589581 31.5564 0.817197Z" fill="#937C69"/>
<path id="Vector_10" d="M31.9651 0.812003C32.052 0.955888 32.1846 1.06634 32.3047 1.18219C32.526 1.3957 32.7237 1.65098 32.8746 1.91869C32.9341 2.02415 33.0026 2.14872 33.0973 2.19644C33.1654 2.23078 33.2205 2.21037 33.2712 2.19292C33.7831 2.01766 34.5322 2.25083 35.1935 2.79146C35.2315 2.82265 35.2778 2.85737 35.3066 2.84623C35.3355 2.83491 35.3285 2.78442 35.317 2.74061C35.2523 2.49405 35.1198 2.23711 34.9729 1.99093C34.6436 1.43878 34.2307 0.914298 33.7728 0.466308C33.5558 0.253916 33.3076 0.0470855 33.085 0.00716929C32.9691 -0.0134386 32.8717 0.0138537 32.7796 0.045044C32.5677 0.117079 31.6751 0.331152 31.9651 0.812003Z" fill="#776057"/>
<path id="Vector_11" d="M22.2907 34.4256C15.5009 36.6498 8.28512 37.4778 1.1481 37.1449C0.663346 37.1223 0.373721 37.765 0.553994 38.2156C0.734453 38.6664 1.19229 38.9351 1.63137 39.1419C4.3169 40.4075 7.37505 40.6004 10.3437 40.5766C12.6139 40.5586 14.8834 40.4264 17.1404 40.181C18.8319 39.9968 20.5209 39.7482 22.1652 39.3112C23.9572 38.8348 25.6834 38.1382 27.3749 37.3785C28.7837 36.7458 30.1834 36.0611 31.4078 35.1198C32.632 34.1783 33.6813 32.9574 34.2012 31.503C34.3627 31.0513 34.4676 30.5343 34.2535 30.105C34.0113 29.619 33.4374 29.3993 32.9014 29.3128C30.6973 28.9573 27.6014 31.0582 26.0289 32.4833C24.5673 33.8078 24.1852 33.8052 22.2907 34.4256Z" fill="#FFC938"/>
<path id="Vector_12" d="M43.7643 20.3769C43.4338 14.5219 40.3231 11.0594 37.9339 9.99241C37.7757 9.92167 37.6064 9.87247 37.4287 9.84314C37.1599 9.93912 36.8502 10.0344 36.8502 10.0344L35.0312 10.906C35.0312 10.906 35.7972 11.155 36.6142 14.4712C37.285 17.1937 37.7315 23.582 34.5436 29.9465C33.4766 31.6367 30.168 37.0686 27.1799 37.5153C26.1079 37.6755 25.7028 39.1359 25.271 40.1299C25.0978 40.5285 24.9923 41.0224 25.2483 41.3733C25.3577 41.5233 25.5199 41.6256 25.6843 41.7125C26.8626 42.3363 28.2857 42.1139 29.6154 42.0153C31.3091 41.8896 33.1168 41.9804 33.6545 41.6848C35.134 40.8718 37.5958 34.6059 38.0221 32.6769L40.6439 32.3513C42.9927 27.4857 43.9004 22.7883 43.7643 20.3769Z" fill="#F2BB40"/>
<path id="Vector_13" d="M40.6009 15.8125C41.8799 18.9342 41.3806 24.8126 38.8366 31.0468C38.6619 31.4747 38.1881 32.5222 37.9564 32.9644H40.4789C42.8276 28.0989 43.9006 22.7882 43.7645 20.3769C43.4342 14.522 40.3235 11.0593 37.9343 9.99235C37.7657 9.91697 37.5845 9.86685 37.394 9.83844L36.3438 10.2771C36.3438 10.2771 38.5321 10.7632 40.6009 15.8125Z" fill="#E8B134"/>
<path id="Vector_14" d="M29.7724 27.9191C31.7242 22.9825 31.4153 19.4704 31.7846 15.0163C30.9575 18.0336 32.0718 21.2882 28.5367 28.2472C27.7593 29.7773 26.9085 31.1902 26.0288 32.4831C26.0288 32.4831 29.172 29.438 29.7724 27.9191Z" fill="#FFD93B"/>
<path id="Vector_15" d="M1.38608 38.2531C1.52774 38.3504 1.70337 38.3808 1.87287 38.4089C4.99117 38.9243 8.232 39.4341 11.2716 38.5674C11.5645 38.4839 11.9162 38.2988 11.8833 37.996C11.8451 37.6436 11.3599 37.5868 11.0078 37.6247C9.08305 37.8315 7.14665 37.9282 5.2108 37.9149C4.25392 37.9082 3.23244 37.9516 2.28429 37.8105C2.08267 37.7804 1.65771 37.5374 1.46685 37.5831C1.13304 37.6631 1.1141 38.0664 1.38608 38.2531Z" fill="#FFD93B"/>
<path id="Vector_16" d="M32.8616 37.0826C33.6577 37.188 35.251 37.3438 36.5612 36.8436C36.1117 38.3994 35.9311 38.6532 35.1348 40.0633C34.7178 40.8018 34.1985 41.5619 33.3996 41.8467C32.879 42.0322 32.2935 41.9863 31.7774 41.789C31.261 41.5916 30.8092 41.2517 30.4182 40.8612C29.5966 40.041 29.03 38.9742 28.7877 37.8404C28.7116 37.4841 28.4415 36.6019 28.8885 36.4213C29.1256 36.3253 29.9332 35.5409 30.1625 35.5943C30.4785 35.6681 31.4027 36.8891 32.8616 37.0826Z" fill="#FFC938"/>
<path id="Vector_17" d="M24.5996 40.1921C24.3593 38.571 24.4898 36.8147 25.4085 35.4573C25.847 34.8094 26.5534 34.2417 27.3315 34.3226C28.0277 34.395 28.5663 34.9583 28.9646 35.5336C29.9006 36.886 30.6526 38.3443 31.6408 39.6591C32.6675 41.025 33.7291 41.6197 33.6546 41.6848C33.158 42.1183 31.7728 42.102 31.1186 42.1835C29.6947 42.3604 28.2451 42.3304 26.8293 42.0968C25.5405 41.884 24.8079 41.5981 24.5996 40.1921Z" fill="#FCE18A"/>
<g id="Group_3">
<path id="Vector_18" d="M25.3371 40.0956C25.408 40.4246 25.4979 40.7584 25.6923 41.0332C25.8865 41.3079 26.2058 41.516 26.5416 41.493C27.1153 41.454 27.4473 40.7907 27.4426 40.2157C27.438 39.6407 27.2204 39.0817 27.2295 38.5067C27.2382 37.9646 27.4486 37.4442 27.7135 36.9712C28.049 36.3724 27.8225 35.7627 27.1627 35.4896C26.534 35.2293 26.0077 35.7065 25.701 36.2205C25.0165 37.3672 25.0653 38.8346 25.3371 40.0956Z" fill="white"/>
</g>
</g>
</g>
</svg>
