<svg width="30" height="30" viewBox="0 0 30 30" fill="none" xmlns="http://www.w3.org/2000/svg">
<path d="M27.9421 22.2937C27.6749 22.8469 26.5569 22.8117 25.9405 22.6172C24.3655 22.1203 23.3858 20.7656 23.3858 20.7656L15.2671 17.3203L12.7804 16.0148C12.7804 16.0148 12.2976 15.1945 13.2632 14.5687C14.2288 13.943 14.9062 13.8961 14.9062 13.8961L17.7046 15.6773C17.7046 15.6773 19.5116 14.2711 21.3468 14.0578C23.0999 13.8562 25.2819 15.2812 25.8562 17.9719C26.3226 20.1539 27.0608 20.9227 27.2835 21.2062C27.5062 21.4922 28.1718 21.8203 27.9421 22.2937Z" fill="#FF8E00"/>
<path d="M18.2156 7.53515C17.4961 5.1539 16.5867 2.36718 15.2133 1.41327C13.9969 0.569525 12.8133 0.721868 12.2508 1.08984C12.2508 1.08984 11.2359 1.50468 10.9687 2.55234C10.5281 4.27265 11.107 6.33749 11.4844 8.47031C11.8617 10.6031 12.0586 12.0703 12.2297 13.7836C12.2461 13.9383 15.0797 18.982 15.0797 18.982L17.3414 20.1937C17.3414 20.1937 19.0687 16.4578 19.043 15.9305C19.0195 15.4008 18.7406 9.27421 18.2156 7.53515Z" fill="#FFE4B4"/>
<path d="M12.3164 15.6891C12.2859 16.2586 13.6593 20.7985 13.6593 20.7985L17.3437 20.1891C17.3437 20.1891 19.957 18.6422 20.0296 15.8367C20.1421 11.6063 19.4179 9.61408 18.8929 7.87501C18.171 5.49845 16.5632 2.3672 15.2015 1.39689C14.4023 0.827358 13.5164 0.742983 13.1531 0.813296C13.1531 0.813296 15.5718 2.70705 16.7953 5.94611C18.0187 9.18517 18.307 12.9281 18.307 12.9281C18.307 12.9281 17.407 13.5914 15.2835 13.8961C13.6429 14.1328 12.2273 13.732 12.2273 13.732C12.2273 13.732 12.3562 14.9672 12.3164 15.6891Z" fill="#FFE265"/>
<path d="M19.9991 19.6289L18.5249 16.5492L18.6046 15.4524C18.6046 15.4524 18.9187 14.5313 16.9569 16.0195C16.0476 16.7086 15.4991 17.9789 15.4991 17.9789C15.4991 17.9789 15.2226 17.2945 14.2522 16.3899C13.3897 15.5883 12.2296 15.1992 12.2296 15.1992C12.2296 15.1992 9.82021 14.7305 9.55771 14.9344C7.8585 16.2609 6.61631 17.8758 6.61631 17.8758L5.36709 22.5984L3.29053 23.8711C3.29053 23.8711 3.85771 24.7008 4.67803 24.3914C5.31787 24.15 6.11006 23.4258 6.53662 22.5141C7.12256 21.2602 8.35303 18.8883 8.97881 18.1383C10.1882 16.6945 11.3741 16.1672 12.2577 16.5867C13.2632 17.0625 12.4593 21.8109 12.4593 21.8109L5.99521 27.2508L5.88506 27.9914C5.88506 27.9914 6.8249 28.8938 9.41475 28.8094C12.0046 28.725 15.4687 27.7664 17.6601 24.7781C19.5937 22.1438 19.9991 19.6289 19.9991 19.6289Z" fill="#FFA726"/>
<path d="M14.9017 19.9125C14.9579 21.2133 14.147 23.1844 12.272 24.8273C10.3993 26.4703 8.42119 27.0141 7.19307 27.1078C6.30244 27.1758 6.0376 26.6672 6.0376 26.6672C6.0376 26.6672 7.83291 25.0149 9.1665 23.6906C10.4321 22.432 11.8103 19.7883 12.1103 18.5719C12.4103 17.3555 12.1384 16.5375 12.1384 16.5375C12.1384 16.5375 12.7196 16.6992 13.5751 17.557C14.4048 18.3891 14.8712 19.1906 14.9017 19.9125Z" fill="#FFB803"/>
<path d="M6.90223 27.8297C6.7077 28.282 6.03973 28.3008 5.74911 28.05C5.47489 27.8133 5.2077 27.3422 5.48426 26.8149C5.66708 26.468 6.26708 26.3719 6.60458 26.6414C6.94208 26.911 7.07801 27.4195 6.90223 27.8297Z" fill="#875B54"/>
<path d="M5.56875 22.9312C4.8 23.9976 4.0289 24.1594 3.71015 24.1945C3.43125 24.2273 3.12656 23.8711 3.16172 23.543C3.19687 23.2148 3.73593 22.7531 3.80156 21.7453C3.86718 20.7375 3.7875 17.0414 5.83828 14.918C7.28437 13.4226 9.05625 13.9383 10.2 14.3344C11.4891 14.7797 12.232 15.2016 12.232 15.2016C12.232 15.2016 11.1773 15.1289 9.35859 16.5633C8.30156 17.3976 7.68047 18.5437 7.09453 19.8586C6.67265 20.8101 6.11015 22.1812 5.56875 22.9312Z" fill="#FEE4B4"/>
<path d="M26.0157 25.6828C25.8 26.1141 25.2727 26.3812 24.8063 26.3602C23.8196 26.318 22.9196 25.8094 21.9235 24.525C20.5149 22.7062 19.2891 18.3422 18.3704 17.1797C17.7493 16.3945 16.9758 16.0055 16.9758 16.0055C16.9758 16.0055 17.4024 15.6445 17.829 15.4219C18.2555 15.1992 19.2868 15.3047 19.2868 15.3047L23.6883 22.3781L26.0157 25.6828Z" fill="#FEB804"/>
<path d="M23.529 16.0453C24.4946 17.4258 24.6212 18.6375 24.7665 19.875C24.8978 20.993 25.1673 23.3438 25.5728 24.1102C25.9806 24.8766 26.3767 25.3758 25.9384 25.8422C25.5001 26.3086 24.211 26.1422 23.2853 25.1344C22.5399 24.3211 22.1274 23.4352 21.5673 22.1344C21.0071 20.8336 20.1821 17.7633 19.111 16.3758C18.4267 15.4898 17.7446 15.4641 17.7446 15.4641C17.7446 15.4641 18.647 14.7281 20.3696 14.7094C21.9142 14.693 22.7251 14.8969 23.529 16.0453Z" fill="#FFE4B4"/>
</svg>
