<svg width="100" height="100" viewBox="0 0 100 100" fill="none" xmlns="http://www.w3.org/2000/svg">
<g id="banana">
<path id="Vector" d="M93.1406 74.3125C92.25 76.1563 88.5234 76.0391 86.4688 75.3906C81.2188 73.7344 77.9531 69.2187 77.9531 69.2187L50.8906 57.7344L42.6016 53.3828C42.6016 53.3828 40.9922 50.6484 44.2109 48.5625C47.4297 46.4766 49.6875 46.3203 49.6875 46.3203L59.0156 52.2578C59.0156 52.2578 65.0391 47.5703 71.1563 46.8594C77 46.1875 84.2734 50.9375 86.1875 59.9062C87.7422 67.1797 90.2031 69.7422 90.9453 70.6875C91.6875 71.6406 93.9062 72.7344 93.1406 74.3125Z" fill="#FF8E00"/>
<path id="Vector_2" d="M60.7188 25.1172C58.3204 17.1797 55.2891 7.8906 50.711 4.71092C46.6563 1.89842 42.711 2.40623 40.836 3.63279C40.836 3.63279 37.4532 5.0156 36.5626 8.50779C35.0938 14.2422 37.0235 21.125 38.2813 28.2344C39.5391 35.3437 40.1954 40.2344 40.7657 45.9453C40.8204 46.4609 50.2657 63.2734 50.2657 63.2734L57.8047 67.3125C57.8047 67.3125 63.5626 54.8594 63.4766 53.1015C63.3985 51.3359 62.4688 30.914 60.7188 25.1172Z" fill="#FFF0D7"/>
<path id="Vector_3" d="M41.0547 52.2969C40.9531 54.1953 45.5313 69.3281 45.5313 69.3281L57.8125 67.2969C57.8125 67.2969 66.5234 62.1406 66.7656 52.7891C67.1406 38.6875 64.7266 32.0469 62.9766 26.25C60.5703 18.3281 55.2109 7.89063 50.6719 4.65626C48.0078 2.75782 45.0547 2.47657 43.8438 2.71094C43.8438 2.71094 51.9063 9.02345 55.9844 19.8203C60.0625 30.6172 61.0234 43.0938 61.0234 43.0938C61.0234 43.0938 58.0234 45.3047 50.9453 46.3203C45.4766 47.1094 40.7578 45.7734 40.7578 45.7734C40.7578 45.7734 41.1875 49.8906 41.0547 52.2969Z" fill="#F5D650"/>
<path id="Vector_4" d="M66.6641 65.4297L61.75 55.1641L62.0156 51.5078C62.0156 51.5078 63.0625 48.4375 56.5234 53.3985C53.4922 55.6953 51.6641 59.9297 51.6641 59.9297C51.6641 59.9297 50.7422 57.6485 47.5078 54.6328C44.6328 51.961 40.7656 50.6641 40.7656 50.6641C40.7656 50.6641 32.7344 49.1016 31.8594 49.7813C26.1953 54.2031 22.0547 59.586 22.0547 59.586L17.8906 75.3281L10.9688 79.5703C10.9688 79.5703 12.8594 82.336 15.5937 81.3047C17.7266 80.5 20.3672 78.086 21.7891 75.0469C23.7422 70.8672 27.8438 62.961 29.9297 60.461C33.9609 55.6485 37.9141 53.8906 40.8594 55.2891C44.2109 56.875 41.5312 72.7031 41.5312 72.7031L19.9844 90.836L19.6172 93.3047C19.6172 93.3047 22.75 96.3125 31.3828 96.0313C40.0156 95.75 51.5625 92.5547 58.8672 82.5938C65.3125 73.8125 66.6641 65.4297 66.6641 65.4297Z" fill="#FFA726"/>
<path id="Vector_5" d="M49.6719 66.375C49.8594 70.7109 47.1562 77.2812 40.9062 82.7578C34.6641 88.2344 28.0703 90.0469 23.9766 90.3594C21.0078 90.5859 20.125 88.8906 20.125 88.8906C20.125 88.8906 26.1094 83.3828 30.5547 78.9688C34.7734 74.7734 39.3672 65.9609 40.3672 61.9062C41.3672 57.8516 40.4609 55.125 40.4609 55.125C40.4609 55.125 42.3984 55.6641 45.25 58.5234C48.0156 61.2969 49.5703 63.9688 49.6719 66.375Z" fill="#FFB803"/>
<path id="Vector_6" d="M23.0078 92.7657C22.3593 94.2735 20.1328 94.336 19.164 93.5C18.25 92.711 17.3593 91.1407 18.2812 89.3828C18.8906 88.2266 20.8906 87.9063 22.0156 88.8047C23.1406 89.7032 23.5937 91.3985 23.0078 92.7657Z" fill="#875B54"/>
<path id="Vector_7" d="M18.5625 76.4375C16 79.9922 13.4297 80.5313 12.3672 80.6485C11.4375 80.7579 10.4219 79.5703 10.5391 78.4766C10.6562 77.3828 12.4531 75.8438 12.6719 72.4844C12.8906 69.125 12.625 56.8047 19.4609 49.7266C24.2812 44.7422 30.1875 46.461 34 47.7813C38.2969 49.2657 40.7734 50.6719 40.7734 50.6719C40.7734 50.6719 37.2578 50.4297 31.1953 55.211C27.6719 57.9922 25.6016 61.8125 23.6484 66.1953C22.2422 69.3672 20.3672 73.9375 18.5625 76.4375Z" fill="#FEE4B4"/>
<path id="Vector_8" d="M86.7188 85.6094C86 87.0469 84.2422 87.9375 82.6875 87.8672C79.3984 87.7266 76.3984 86.0313 73.0781 81.75C68.3828 75.6875 64.2969 61.1406 61.2344 57.2656C59.1641 54.6484 56.5859 53.3516 56.5859 53.3516C56.5859 53.3516 58.0078 52.1485 59.4297 51.4063C60.8516 50.6641 64.2891 51.0156 64.2891 51.0156L78.9609 74.5938L86.7188 85.6094Z" fill="#FEB804"/>
<path id="Vector_9" d="M78.4297 53.4844C81.6484 58.0859 82.0703 62.125 82.5547 66.25C82.9922 69.9766 83.8906 77.8125 85.2422 80.3672C86.6016 82.9219 87.9219 84.586 86.4609 86.1406C85 87.6953 80.7031 87.1406 77.6172 83.7813C75.1328 81.0703 73.7578 78.1172 71.8906 73.7813C70.0234 69.4453 67.2734 59.211 63.7031 54.586C61.4219 51.6328 59.1484 51.5469 59.1484 51.5469C59.1484 51.5469 62.1563 49.0938 67.8984 49.0313C73.0469 48.9766 75.75 49.6563 78.4297 53.4844Z" fill="#FFE4B4"/>
</g>
</svg>
