<svg width="80" height="80" viewBox="0 0 80 80" fill="none" xmlns="http://www.w3.org/2000/svg">
<g id="banana">
<path id="Vector" d="M74.5124 59.45C73.7999 60.925 70.8187 60.8313 69.1749 60.3125C64.9749 58.9875 62.3624 55.375 62.3624 55.375L40.7124 46.1875L34.0812 42.7063C34.0812 42.7063 32.7937 40.5188 35.3687 38.85C37.9437 37.1813 39.7499 37.0563 39.7499 37.0563L47.2124 41.8063C47.2124 41.8063 52.0312 38.0563 56.9249 37.4875C61.5999 36.95 67.4187 40.75 68.9499 47.925C70.1937 53.7438 72.1624 55.7938 72.7562 56.55C73.3499 57.3125 75.1249 58.1875 74.5124 59.45Z" fill="#FF8E00"/>
<path id="Vector_2" d="M48.5749 20.0937C46.6562 13.7437 44.2312 6.31248 40.5687 3.76873C37.3249 1.51873 34.1687 1.92498 32.6687 2.90623C32.6687 2.90623 29.9624 4.01248 29.2499 6.80623C28.0749 11.3937 29.6187 16.9 30.6249 22.5875C31.6312 28.275 32.1562 32.1875 32.6124 36.7562C32.6562 37.1687 40.2124 50.6187 40.2124 50.6187L46.2436 53.85C46.2436 53.85 50.8499 43.8875 50.7812 42.4812C50.7187 41.0687 49.9749 24.7312 48.5749 20.0937Z" fill="#FFF0D7"/>
<path id="Vector_3" d="M32.8437 41.8375C32.7625 43.3563 36.425 55.4625 36.425 55.4625L46.25 53.8375C46.25 53.8375 53.2187 49.7125 53.4125 42.2313C53.7125 30.95 51.7812 25.6375 50.3812 21C48.4562 14.6625 44.1687 6.31252 40.5375 3.72502C38.4062 2.20627 36.0437 1.98127 35.075 2.16877C35.075 2.16877 41.525 7.21877 44.7875 15.8563C48.05 24.4938 48.8187 34.475 48.8187 34.475C48.8187 34.475 46.4187 36.2438 40.7562 37.0563C36.3812 37.6875 32.6062 36.6188 32.6062 36.6188C32.6062 36.6188 32.95 39.9125 32.8437 41.8375Z" fill="#F5D650"/>
<path id="Vector_4" d="M53.3312 52.3438L49.3999 44.1313L49.6124 41.2063C49.6124 41.2063 50.4499 38.75 45.2187 42.7188C42.7937 44.5563 41.3312 47.9438 41.3312 47.9438C41.3312 47.9438 40.5937 46.1188 38.0062 43.7063C35.7062 41.5688 32.6124 40.5313 32.6124 40.5313C32.6124 40.5313 26.1874 39.2813 25.4874 39.825C20.9562 43.3625 17.6437 47.6688 17.6437 47.6688L14.3124 60.2625L8.7749 63.6563C8.7749 63.6563 10.2874 65.8688 12.4749 65.0438C14.1812 64.4 16.2937 62.4688 17.4312 60.0375C18.9937 56.6938 22.2749 50.3688 23.9437 48.3688C27.1687 44.5188 30.3312 43.1125 32.6874 44.2313C35.3687 45.5 33.2249 58.1625 33.2249 58.1625L15.9874 72.6688L15.6937 74.6438C15.6937 74.6438 18.1999 77.05 25.1062 76.825C32.0124 76.6 41.2499 74.0438 47.0937 66.075C52.2499 59.05 53.3312 52.3438 53.3312 52.3438Z" fill="#FFA726"/>
<path id="Vector_5" d="M39.7376 53.1C39.8876 56.5687 37.7251 61.825 32.7251 66.2062C27.7313 70.5875 22.4563 72.0375 19.1813 72.2875C16.8063 72.4687 16.1001 71.1125 16.1001 71.1125C16.1001 71.1125 20.8876 66.7062 24.4438 63.175C27.8188 59.8187 31.4938 52.7687 32.2938 49.525C33.0938 46.2812 32.3688 44.1 32.3688 44.1C32.3688 44.1 33.9188 44.5312 36.2001 46.8187C38.4126 49.0375 39.6563 51.175 39.7376 53.1Z" fill="#FFB803"/>
<path id="Vector_6" d="M18.4064 74.2125C17.8876 75.4187 16.1064 75.4687 15.3314 74.8C14.6001 74.1687 13.8876 72.9125 14.6251 71.5063C15.1126 70.5813 16.7126 70.325 17.6126 71.0437C18.5126 71.7625 18.8751 73.1187 18.4064 74.2125Z" fill="#875B54"/>
<path id="Vector_7" d="M14.85 61.15C12.8 63.9937 10.7437 64.425 9.89374 64.5187C9.14999 64.6062 8.33749 63.6562 8.43124 62.7812C8.52499 61.9062 9.96249 60.675 10.1375 57.9875C10.3125 55.3 10.1 45.4437 15.5687 39.7812C19.425 35.7937 24.15 37.1687 27.2 38.225C30.6375 39.4125 32.6187 40.5375 32.6187 40.5375C32.6187 40.5375 29.8062 40.3437 24.9562 44.1687C22.1375 46.3937 20.4812 49.45 18.9187 52.9562C17.7937 55.4937 16.2937 59.15 14.85 61.15Z" fill="#FEE4B4"/>
<path id="Vector_8" d="M69.375 68.4875C68.8 69.6375 67.3938 70.35 66.15 70.2938C63.5188 70.1813 61.1188 68.825 58.4625 65.4C54.7063 60.55 51.4375 48.9125 48.9875 45.8125C47.3313 43.7188 45.2688 42.6813 45.2688 42.6813C45.2688 42.6813 46.4063 41.7188 47.5438 41.125C48.6813 40.5313 51.4313 40.8125 51.4313 40.8125L63.1688 59.675L69.375 68.4875Z" fill="#FEB804"/>
<path id="Vector_9" d="M62.7438 42.7875C65.3188 46.4688 65.6563 49.7 66.0438 53C66.3938 55.9813 67.1126 62.25 68.1938 64.2938C69.2813 66.3375 70.3376 67.6688 69.1688 68.9125C68.0001 70.1563 64.5626 69.7125 62.0938 67.025C60.1063 64.8563 59.0063 62.4938 57.5126 59.025C56.0188 55.5563 53.8188 47.3688 50.9626 43.6688C49.1376 41.3063 47.3188 41.2375 47.3188 41.2375C47.3188 41.2375 49.7251 39.275 54.3189 39.225C58.4376 39.1813 60.6001 39.725 62.7438 42.7875Z" fill="#FFE4B4"/>
</g>
</svg>
