<svg width="24" height="24" viewBox="0 0 24 24" fill="none" xmlns="http://www.w3.org/2000/svg">
<path d="M0 4C0 1.79086 1.79086 0 4 0H20C22.2091 0 24 1.79086 24 4V20C24 22.2091 22.2091 24 20 24H4C1.79086 24 0 22.2091 0 20V4Z" fill="#FFC604"/>
<path fill-rule="evenodd" clip-rule="evenodd" d="M20.7805 5.46888C20.8504 5.53855 20.9058 5.62131 20.9436 5.71243C20.9814 5.80355 21.0009 5.90123 21.0009 5.99988C21.0009 6.09853 20.9814 6.19621 20.9436 6.28733C20.9058 6.37845 20.8504 6.46121 20.7805 6.53088L10.2805 17.0309C10.2108 17.1007 10.1281 17.1561 10.037 17.194C9.94585 17.2318 9.84816 17.2512 9.74951 17.2512C9.65086 17.2512 9.55318 17.2318 9.46206 17.194C9.37094 17.1561 9.28818 17.1007 9.21851 17.0309L3.96851 11.7809C3.82768 11.6401 3.74857 11.449 3.74857 11.2499C3.74857 11.0507 3.82768 10.8597 3.96851 10.7189C4.10934 10.5781 4.30035 10.4989 4.49951 10.4989C4.69868 10.4989 4.88968 10.5781 5.03051 10.7189L9.74951 15.4394L19.7185 5.46888C19.7882 5.39904 19.8709 5.34362 19.9621 5.30581C20.0532 5.268 20.1509 5.24854 20.2495 5.24854C20.3482 5.24854 20.4458 5.268 20.537 5.30581C20.6281 5.34362 20.7108 5.39904 20.7805 5.46888Z" fill="#46391D"/>
</svg>
