<svg width="23" height="24" viewBox="0 0 23 24" fill="none" xmlns="http://www.w3.org/2000/svg">
<g id="chevron-left">
<path id="Vector" fill-rule="evenodd" clip-rule="evenodd" d="M16.3212 2.46888C16.3881 2.53854 16.4412 2.62131 16.4775 2.71243C16.5137 2.80354 16.5324 2.90122 16.5324 2.99988C16.5324 3.09853 16.5137 3.19621 16.4775 3.28733C16.4412 3.37844 16.3881 3.46121 16.3212 3.53088L8.20363 11.9999L16.3212 20.4689C16.4562 20.6097 16.532 20.8007 16.532 20.9999C16.532 21.199 16.4562 21.39 16.3212 21.5309C16.1862 21.6717 16.0032 21.7508 15.8123 21.7508C15.6215 21.7508 15.4384 21.6717 15.3034 21.5309L6.67844 12.5309C6.61151 12.4612 6.5584 12.3784 6.52217 12.2873C6.48594 12.1962 6.46729 12.0985 6.46729 11.9999C6.46729 11.9012 6.48594 11.8035 6.52217 11.7124C6.5584 11.6213 6.61151 11.5385 6.67844 11.4689L15.3034 2.46888C15.3702 2.39903 15.4495 2.34362 15.5368 2.30581C15.6242 2.268 15.7178 2.24854 15.8123 2.24854C15.9069 2.24854 16.0005 2.268 16.0878 2.30581C16.1751 2.34362 16.2544 2.39903 16.3212 2.46888Z" fill="#717171"/>
</g>
</svg>
