<svg width="23" height="24" viewBox="0 0 23 24" fill="none" xmlns="http://www.w3.org/2000/svg">
<g id="chevron-right">
<path id="Vector" fill-rule="evenodd" clip-rule="evenodd" d="M6.67844 2.46888C6.74521 2.39903 6.82453 2.34362 6.91185 2.30581C6.99917 2.268 7.09278 2.24854 7.18732 2.24854C7.28186 2.24854 7.37547 2.268 7.46279 2.30581C7.55011 2.34362 7.62943 2.39903 7.69619 2.46888L16.3212 11.4689C16.3881 11.5385 16.4412 11.6213 16.4775 11.7124C16.5137 11.8035 16.5324 11.9012 16.5324 11.9999C16.5324 12.0985 16.5137 12.1962 16.4775 12.2873C16.4412 12.3784 16.3881 12.4612 16.3212 12.5309L7.69619 21.5309C7.56123 21.6717 7.37818 21.7508 7.18732 21.7508C6.99645 21.7508 6.81341 21.6717 6.67844 21.5309C6.54348 21.39 6.46766 21.199 6.46766 20.9999C6.46766 20.8007 6.54348 20.6097 6.67844 20.4689L14.796 11.9999L6.67844 3.53088C6.61151 3.46121 6.5584 3.37844 6.52217 3.28733C6.48594 3.19621 6.46729 3.09853 6.46729 2.99988C6.46729 2.90122 6.48594 2.80354 6.52217 2.71243C6.5584 2.62131 6.61151 2.53854 6.67844 2.46888Z" fill="#717171"/>
</g>
</svg>
